<mxfile host="65bd71144e">
    <diagram id="55q4ZIRGU6sl2Kyfp6i8" name="Page-1">
        <mxGraphModel dx="2304" dy="681" grid="1" gridSize="10" guides="1" tooltips="1" connect="1" arrows="1" fold="1" page="1" pageScale="1" pageWidth="850" pageHeight="1100" math="0" shadow="0">
            <root>
                <mxCell id="0"/>
                <mxCell id="1" parent="0"/>
                <mxCell id="52" value="" style="rounded=1;whiteSpace=wrap;html=1;strokeWidth=4;" parent="1" vertex="1">
                    <mxGeometry x="200" y="160" width="500" height="130" as="geometry"/>
                </mxCell>
                <mxCell id="4" value="" style="edgeStyle=none;html=1;entryX=0.5;entryY=0;entryDx=0;entryDy=0;strokeWidth=4;" parent="1" source="2" target="3" edge="1">
                    <mxGeometry relative="1" as="geometry">
                        <mxPoint x="530" y="210" as="targetPoint"/>
                    </mxGeometry>
                </mxCell>
                <mxCell id="6" value="" style="edgeStyle=none;html=1;strokeWidth=4;" parent="1" source="2" target="5" edge="1">
                    <mxGeometry relative="1" as="geometry"/>
                </mxCell>
                <mxCell id="2" value="Scope of Evaluation" style="rounded=1;whiteSpace=wrap;html=1;strokeWidth=4;" parent="1" vertex="1">
                    <mxGeometry x="380" y="20" width="120" height="60" as="geometry"/>
                </mxCell>
                <mxCell id="55" style="edgeStyle=none;html=1;entryX=0.5;entryY=0;entryDx=0;entryDy=0;strokeWidth=4;" parent="1" source="3" target="54" edge="1">
                    <mxGeometry relative="1" as="geometry"/>
                </mxCell>
                <mxCell id="3" value="LLM model&amp;nbsp;&lt;span style=&quot;background-color: transparent;&quot;&gt;evaluation&lt;/span&gt;" style="whiteSpace=wrap;html=1;rounded=1;strokeWidth=4;" parent="1" vertex="1">
                    <mxGeometry x="270" y="200" width="140" height="60" as="geometry"/>
                </mxCell>
                <mxCell id="61" style="edgeStyle=none;html=1;entryX=0.5;entryY=0;entryDx=0;entryDy=0;strokeWidth=4;" parent="1" source="5" target="59" edge="1">
                    <mxGeometry relative="1" as="geometry"/>
                </mxCell>
                <mxCell id="5" value="LLM system evaluation" style="whiteSpace=wrap;html=1;rounded=1;strokeWidth=4;" parent="1" vertex="1">
                    <mxGeometry x="500" y="200" width="140" height="60" as="geometry"/>
                </mxCell>
                <mxCell id="8" value="LLM" style="rounded=1;whiteSpace=wrap;html=1;strokeWidth=4;" parent="1" vertex="1">
                    <mxGeometry x="380" y="450" width="120" height="60" as="geometry"/>
                </mxCell>
                <mxCell id="30" value="" style="group;strokeWidth=4;" parent="1" vertex="1" connectable="0">
                    <mxGeometry x="65" y="890" width="670" height="170" as="geometry"/>
                </mxCell>
                <mxCell id="22" value="" style="rounded=1;whiteSpace=wrap;html=1;strokeWidth=4;" parent="30" vertex="1">
                    <mxGeometry width="670" height="170" as="geometry"/>
                </mxCell>
                <mxCell id="17" value="Performance&lt;div&gt;speed &amp;amp; function&lt;/div&gt;" style="rounded=1;whiteSpace=wrap;html=1;strokeWidth=4;" parent="30" vertex="1">
                    <mxGeometry x="110" y="46.153846153846146" width="120" height="69.23076923076923" as="geometry"/>
                </mxCell>
                <mxCell id="18" value="Effectiveness&lt;div&gt;accuracy &amp;amp; utility&lt;/div&gt;" style="rounded=1;whiteSpace=wrap;html=1;strokeWidth=4;" parent="30" vertex="1">
                    <mxGeometry x="290" y="46.153846153846146" width="120" height="69.23076923076923" as="geometry"/>
                </mxCell>
                <mxCell id="19" value="Quality&lt;div&gt;reliability &amp;amp; UX&lt;/div&gt;" style="rounded=1;whiteSpace=wrap;html=1;strokeWidth=4;" parent="30" vertex="1">
                    <mxGeometry x="460" y="46.153846153846146" width="120" height="69.23076923076923" as="geometry"/>
                </mxCell>
                <mxCell id="23" value="Evaluation criteria" style="text;html=1;align=center;verticalAlign=middle;whiteSpace=wrap;rounded=0;strokeWidth=4;" parent="30" vertex="1">
                    <mxGeometry x="282.5" y="130" width="135" height="34.61538461538461" as="geometry"/>
                </mxCell>
                <mxCell id="34" value="" style="group;strokeWidth=4;" parent="1" vertex="1" connectable="0">
                    <mxGeometry x="-20" y="590" width="890" height="190" as="geometry"/>
                </mxCell>
                <mxCell id="31" value="" style="rounded=1;whiteSpace=wrap;html=1;strokeWidth=4;" parent="34" vertex="1">
                    <mxGeometry width="890" height="190" as="geometry"/>
                </mxCell>
                <mxCell id="14" value="MMLU&lt;div&gt;Mean message length in utterance&lt;/div&gt;" style="ellipse;whiteSpace=wrap;html=1;strokeWidth=4;" parent="34" vertex="1">
                    <mxGeometry x="37.5" y="50" width="150" height="70" as="geometry"/>
                </mxCell>
                <mxCell id="21" value="Hellaswag" style="ellipse;whiteSpace=wrap;html=1;strokeWidth=4;" parent="34" vertex="1">
                    <mxGeometry x="245" y="50" width="120" height="80" as="geometry"/>
                </mxCell>
                <mxCell id="27" value="HumanEval" style="ellipse;whiteSpace=wrap;html=1;strokeWidth=4;" parent="34" vertex="1">
                    <mxGeometry x="410" y="45" width="120" height="80" as="geometry"/>
                </mxCell>
                <mxCell id="28" value="ARC&lt;div&gt;(AI2 Reasoning)&lt;/div&gt;" style="ellipse;whiteSpace=wrap;html=1;strokeWidth=4;" parent="34" vertex="1">
                    <mxGeometry x="575" y="40" width="120" height="80" as="geometry"/>
                </mxCell>
                <mxCell id="29" value="WinoGrande" style="ellipse;whiteSpace=wrap;html=1;strokeWidth=4;" parent="34" vertex="1">
                    <mxGeometry x="725" y="40" width="120" height="80" as="geometry"/>
                </mxCell>
                <mxCell id="32" value="Benchmarks" style="text;html=1;align=center;verticalAlign=middle;whiteSpace=wrap;rounded=0;strokeWidth=4;" parent="34" vertex="1">
                    <mxGeometry x="440" width="60" height="30" as="geometry"/>
                </mxCell>
                <mxCell id="16" value="Multiple choice questions across various domains" style="text;html=1;align=center;verticalAlign=middle;whiteSpace=wrap;rounded=0;strokeWidth=4;" parent="34" vertex="1">
                    <mxGeometry x="47.5" y="125" width="130" height="50" as="geometry"/>
                </mxCell>
                <mxCell id="50" value="Code generation" style="text;html=1;align=center;verticalAlign=middle;whiteSpace=wrap;rounded=0;strokeWidth=4;" parent="34" vertex="1">
                    <mxGeometry x="440" y="135" width="60" height="30" as="geometry"/>
                </mxCell>
                <mxCell id="25" style="edgeStyle=none;html=1;endArrow=none;endFill=0;dashed=1;entryX=0.58;entryY=1.04;entryDx=0;entryDy=0;entryPerimeter=0;strokeWidth=4;" parent="1" source="18" target="21" edge="1">
                    <mxGeometry relative="1" as="geometry"/>
                </mxCell>
                <mxCell id="20" style="edgeStyle=none;html=1;entryX=0.907;entryY=0.84;entryDx=0;entryDy=0;entryPerimeter=0;dashed=1;startArrow=none;startFill=0;endArrow=none;endFill=0;strokeWidth=4;" parent="1" source="17" target="14" edge="1">
                    <mxGeometry relative="1" as="geometry"/>
                </mxCell>
                <mxCell id="26" style="edgeStyle=none;html=1;entryX=0.433;entryY=0.98;entryDx=0;entryDy=0;entryPerimeter=0;endArrow=none;endFill=0;dashed=1;strokeWidth=4;" parent="1" source="17" target="21" edge="1">
                    <mxGeometry relative="1" as="geometry"/>
                </mxCell>
                <mxCell id="36" style="edgeStyle=none;html=1;endArrow=none;endFill=0;dashed=1;strokeWidth=4;" parent="1" source="27" target="19" edge="1">
                    <mxGeometry relative="1" as="geometry"/>
                </mxCell>
                <mxCell id="38" style="edgeStyle=none;html=1;entryX=0.75;entryY=0;entryDx=0;entryDy=0;endArrow=none;endFill=0;dashed=1;strokeWidth=4;" parent="1" source="28" target="18" edge="1">
                    <mxGeometry relative="1" as="geometry"/>
                </mxCell>
                <mxCell id="39" style="edgeStyle=none;html=1;entryX=0.917;entryY=0.056;entryDx=0;entryDy=0;entryPerimeter=0;endArrow=none;endFill=0;dashed=1;strokeWidth=4;" parent="1" source="29" target="18" edge="1">
                    <mxGeometry relative="1" as="geometry"/>
                </mxCell>
                <mxCell id="40" style="edgeStyle=none;html=1;endArrow=none;endFill=0;dashed=1;strokeWidth=4;" parent="1" source="29" target="19" edge="1">
                    <mxGeometry relative="1" as="geometry"/>
                </mxCell>
                <mxCell id="56" style="edgeStyle=none;html=1;entryX=0;entryY=0.5;entryDx=0;entryDy=0;exitX=0.75;exitY=1;exitDx=0;exitDy=0;strokeWidth=4;" parent="1" source="54" target="8" edge="1">
                    <mxGeometry relative="1" as="geometry"/>
                </mxCell>
                <mxCell id="54" value="Mesure the general language understanding" style="rounded=1;whiteSpace=wrap;html=1;strokeWidth=4;" parent="1" vertex="1">
                    <mxGeometry x="190" y="340" width="170" height="70" as="geometry"/>
                </mxCell>
                <mxCell id="57" style="edgeStyle=none;html=1;entryX=0.5;entryY=1;entryDx=0;entryDy=0;strokeWidth=4;" parent="1" target="8" edge="1">
                    <mxGeometry relative="1" as="geometry">
                        <mxPoint x="442.09818181818173" y="590" as="sourcePoint"/>
                        <mxPoint x="442" y="520" as="targetPoint"/>
                    </mxGeometry>
                </mxCell>
                <mxCell id="60" style="edgeStyle=none;html=1;entryX=1;entryY=0.5;entryDx=0;entryDy=0;strokeWidth=4;" parent="1" source="59" target="8" edge="1">
                    <mxGeometry relative="1" as="geometry"/>
                </mxCell>
                <mxCell id="63" style="edgeStyle=none;html=1;entryX=0;entryY=0.5;entryDx=0;entryDy=0;strokeWidth=4;" parent="1" source="59" target="62" edge="1">
                    <mxGeometry relative="1" as="geometry"/>
                </mxCell>
                <mxCell id="59" value="Evaluate entire systems against business requirements" style="rounded=1;whiteSpace=wrap;html=1;strokeWidth=4;" parent="1" vertex="1">
                    <mxGeometry x="540" y="340" width="170" height="70" as="geometry"/>
                </mxCell>
                <mxCell id="62" value="Real world data" style="rounded=1;whiteSpace=wrap;html=1;strokeWidth=4;" parent="1" vertex="1">
                    <mxGeometry x="750" y="450" width="120" height="60" as="geometry"/>
                </mxCell>
                <mxCell id="65" value="" style="group;strokeWidth=4;" vertex="1" connectable="0" parent="1">
                    <mxGeometry y="1120" width="1150" height="210" as="geometry"/>
                </mxCell>
                <mxCell id="74" value="" style="group" vertex="1" connectable="0" parent="65">
                    <mxGeometry x="-220" y="10" width="1310" height="210" as="geometry"/>
                </mxCell>
                <mxCell id="66" value="" style="rounded=1;whiteSpace=wrap;html=1;strokeWidth=4;" vertex="1" parent="74">
                    <mxGeometry width="1310" height="210" as="geometry"/>
                </mxCell>
                <mxCell id="67" value="Hallucination" style="rounded=1;whiteSpace=wrap;html=1;strokeWidth=4;" vertex="1" parent="74">
                    <mxGeometry x="70.00044776119404" y="62.243574660633485" width="150.44776119402985" height="85.52036199095022" as="geometry"/>
                </mxCell>
                <mxCell id="68" value="Retrieval relevance" style="rounded=1;whiteSpace=wrap;html=1;strokeWidth=4;" vertex="1" parent="74">
                    <mxGeometry x="280.0020895522388" y="62.243574660633485" width="150.44776119402985" height="85.52036199095022" as="geometry"/>
                </mxCell>
                <mxCell id="69" value="Q&amp;amp;A on retrieved data" style="rounded=1;whiteSpace=wrap;html=1;strokeWidth=4;" vertex="1" parent="74">
                    <mxGeometry x="499.99641791044763" y="62.243574660633485" width="150.44776119402985" height="85.52036199095022" as="geometry"/>
                </mxCell>
                <mxCell id="70" value="Common Types of Evaluation" style="text;html=1;align=center;verticalAlign=middle;whiteSpace=wrap;rounded=0;strokeWidth=4;" vertex="1" parent="74">
                    <mxGeometry x="514.1791044776119" y="160.58823529411765" width="169.2537313432836" height="42.76018099547511" as="geometry"/>
                </mxCell>
                <mxCell id="71" value="Toxicity" style="rounded=1;whiteSpace=wrap;html=1;strokeWidth=4;" vertex="1" parent="74">
                    <mxGeometry x="699.9964179104476" y="62.24357466063337" width="150.44776119402985" height="85.52036199095022" as="geometry"/>
                </mxCell>
                <mxCell id="72" value="Summarization performance" style="rounded=1;whiteSpace=wrap;html=1;strokeWidth=4;" vertex="1" parent="74">
                    <mxGeometry x="919.9964179104476" y="62.243574660633385" width="150.44776119402985" height="85.52036199095022" as="geometry"/>
                </mxCell>
                <mxCell id="73" value="Code correctness" style="rounded=1;whiteSpace=wrap;html=1;strokeWidth=4;" vertex="1" parent="74">
                    <mxGeometry x="1119.9964179104477" y="62.243574660633385" width="150.44776119402985" height="85.52036199095022" as="geometry"/>
                </mxCell>
                <mxCell id="75" value="" style="edgeStyle=none;html=1;entryX=0.525;entryY=1.014;entryDx=0;entryDy=0;entryPerimeter=0;strokeWidth=4;" edge="1" parent="1" target="22">
                    <mxGeometry relative="1" as="geometry">
                        <mxPoint x="417" y="1120" as="sourcePoint"/>
                        <mxPoint x="414" y="1070" as="targetPoint"/>
                    </mxGeometry>
                </mxCell>
                <mxCell id="84" style="edgeStyle=none;html=1;entryX=1;entryY=0.5;entryDx=0;entryDy=0;strokeWidth=4;" edge="1" parent="1" target="59">
                    <mxGeometry relative="1" as="geometry">
                        <mxPoint x="889" y="375" as="sourcePoint"/>
                    </mxGeometry>
                </mxCell>
                <mxCell id="77" value="" style="rounded=1;whiteSpace=wrap;html=1;strokeWidth=4;" vertex="1" parent="1">
                    <mxGeometry x="890" y="20" width="190" height="760" as="geometry"/>
                </mxCell>
                <mxCell id="78" value="Tool selection eval" style="ellipse;whiteSpace=wrap;html=1;strokeWidth=4;" vertex="1" parent="1">
                    <mxGeometry x="929" y="80" width="120" height="80" as="geometry"/>
                </mxCell>
                <mxCell id="80" value="Function call eval" style="ellipse;whiteSpace=wrap;html=1;strokeWidth=4;" vertex="1" parent="1">
                    <mxGeometry x="924" y="230" width="120" height="80" as="geometry"/>
                </mxCell>
                <mxCell id="81" value="RAG eval" style="ellipse;whiteSpace=wrap;html=1;strokeWidth=4;" vertex="1" parent="1">
                    <mxGeometry x="924" y="370" width="120" height="80" as="geometry"/>
                </mxCell>
                <mxCell id="82" value="Tone eval" style="ellipse;whiteSpace=wrap;html=1;strokeWidth=4;" vertex="1" parent="1">
                    <mxGeometry x="924" y="500" width="120" height="80" as="geometry"/>
                </mxCell>
                <mxCell id="83" value="Correctness eval" style="ellipse;whiteSpace=wrap;html=1;strokeWidth=4;" vertex="1" parent="1">
                    <mxGeometry x="929" y="644" width="120" height="80" as="geometry"/>
                </mxCell>
            </root>
        </mxGraphModel>
    </diagram>
</mxfile>